<?xml version="1.0" encoding="UTF-8"?>
<svg width="1920px" height="1080px" viewBox="0 0 1920 1080" version="1.1" xmlns="http://www.w3.org/2000/svg" xmlns:xlink="http://www.w3.org/1999/xlink">
    <!-- Generator: Sketch 49 (51002) - http://www.bohemiancoding.com/sketch -->
    <title>background</title>
    <desc>Created with Sketch.</desc>
    <defs>
        <linearGradient x1="106.678833%" y1="58.720665%" x2="-8.18844289%" y2="46.6435736%" id="linearGradient-1">
            <stop stop-color="#E4EEF8" offset="0%"></stop>
            <stop stop-color="#1E86B4" offset="68.72%"></stop>
        </linearGradient>
        <linearGradient x1="8.78605956e-05%" y1="50.000332%" x2="100.000047%" y2="50.000332%" id="linearGradient-2">
            <stop stop-color="#002E64" offset="0%"></stop>
            <stop stop-color="#043A6F" offset="3.12%"></stop>
            <stop stop-color="#0F5B8D" offset="13.55%"></stop>
            <stop stop-color="#1773A2" offset="23.53%"></stop>
            <stop stop-color="#1C82AF" offset="32.76%"></stop>
            <stop stop-color="#1E86B4" offset="40.51%"></stop>
            <stop stop-color="#002E64" offset="100%"></stop>
        </linearGradient>
        <radialGradient cx="-1.79880354%" cy="-6.63950763%" fx="-1.79880354%" fy="-6.63950763%" r="147.07781%" gradientTransform="translate(-0.017988,-0.066395),scale(1.000000,0.950549),translate(0.017988,0.066395)" id="radialGradient-3">
            <stop stop-color="#002E64" offset="0%"></stop>
            <stop stop-color="#1E86B4" offset="51.78%"></stop>
            <stop stop-color="#7AA9DA" offset="94.36%"></stop>
        </radialGradient>
        <linearGradient x1="-0.000299568758%" y1="49.999828%" x2="100.000038%" y2="49.999828%" id="linearGradient-4">
            <stop stop-color="#FDE5DE" offset="0%"></stop>
            <stop stop-color="#ED1C4E" offset="68.72%"></stop>
        </linearGradient>
        <linearGradient x1="4.02248522%" y1="68.4357666%" x2="100.903522%" y2="39.3911298%" id="linearGradient-5">
            <stop stop-color="#6B2023" offset="0%"></stop>
            <stop stop-color="#761F26" offset="3.41%"></stop>
            <stop stop-color="#A11E34" offset="17.8%"></stop>
            <stop stop-color="#C21D3F" offset="31.77%"></stop>
            <stop stop-color="#DA1C47" offset="45.05%"></stop>
            <stop stop-color="#E91C4C" offset="57.32%"></stop>
            <stop stop-color="#ED1C4E" offset="67.64%"></stop>
            <stop stop-color="#6B2023" offset="100%"></stop>
        </linearGradient>
        <radialGradient cx="99.4430601%" cy="90.0848165%" fx="99.4430601%" fy="90.0848165%" r="103.878632%" gradientTransform="translate(0.994431,0.900848),scale(0.880881,1.000000),translate(-0.994431,-0.900848)" id="radialGradient-6">
            <stop stop-color="#6B2023" offset="0%"></stop>
            <stop stop-color="#ED1C4E" offset="59.63%"></stop>
            <stop stop-color="#F47C5B" offset="94.36%"></stop>
        </radialGradient>
        <linearGradient x1="78.0117895%" y1="5.85029415%" x2="23.3744682%" y2="116.073673%" id="linearGradient-7">
            <stop stop-color="#F8FAE5" offset="0%"></stop>
            <stop stop-color="#7BA34A" offset="68.72%"></stop>
        </linearGradient>
        <linearGradient x1="32.3413681%" y1="-1.91288211%" x2="55.7905576%" y2="94.3607511%" id="linearGradient-8">
            <stop stop-color="#00572D" offset="0%"></stop>
            <stop stop-color="#04592E" offset="0.98%"></stop>
            <stop stop-color="#2E7338" offset="13.74%"></stop>
            <stop stop-color="#508840" offset="26.13%"></stop>
            <stop stop-color="#689746" offset="37.9%"></stop>
            <stop stop-color="#76A049" offset="48.78%"></stop>
            <stop stop-color="#7BA34A" offset="57.93%"></stop>
            <stop stop-color="#00572D" offset="100%"></stop>
        </linearGradient>
        <radialGradient cx="9.41792838%" cy="101.746971%" fx="9.41792838%" fy="101.746971%" r="110.789746%" gradientTransform="translate(0.094179,1.017470),scale(1.000000,0.970121),translate(-0.094179,-1.017470)" id="radialGradient-9">
            <stop stop-color="#00572D" offset="0%"></stop>
            <stop stop-color="#7BA34A" offset="58.71%"></stop>
            <stop stop-color="#DBE47C" offset="94.36%"></stop>
        </radialGradient>
    </defs>
    <g id="background" stroke="none" stroke-width="1" fill="none" fill-rule="evenodd">
        <g id="logo-deltatre" transform="translate(702.000000, 440.000000)" fill-rule="nonzero">
            <g id="Group" transform="translate(153.075171, 41.457859)" fill="#FFFFFF">
                <path d="M16.0829157,55.6610478 C16.0829157,47.8979499 18.7813212,37.2077449 28.5735763,37.2077449 C38.2460137,37.2077449 42.0824601,47.5585421 42.0824601,55.6610478 C42.0824601,63.8779043 38.8113895,74.4501139 28.8013667,74.4501139 C18.8947608,74.4501139 16.0829157,63.6501139 16.0829157,55.6610478 Z M42.6323462,84.8018223 L57.2605923,84.8018223 L57.2605923,0.416856492 L42.1872437,0.416856492 L42.1872437,33.6104784 L41.9731207,33.6104784 C37.4624146,28.0943052 32.1785877,25.509795 24.6332574,25.509795 C6.85512528,25.509795 0.328929385,39.684738 0.328929385,55.6610478 C0.328929385,71.5248292 6.85421412,86.1539863 24.6332574,86.1539863 C31.7202733,86.1539863 37.9125285,83.8974943 42.414123,78.2747153 L42.6314351,78.2747153 L42.6323462,84.8018223 Z" id="Shape"></path>
                <path d="M77.4236902,50.1539863 C78.109795,42.385877 82.3831435,36.5348519 90.8150342,36.5348519 C99.2551253,36.5348519 102.63508,42.8396355 103.084738,50.1539863 L77.4236902,50.1539863 Z M113.199544,69.2687927 C107.574032,72.4296128 101.283371,75.1261959 93.9712984,75.1261959 C84.6355353,75.1261959 78.109795,69.8359909 77.4236902,60.5020501 L117.485649,60.5020501 C117.485649,40.2451025 111.408656,25.5088838 89.918451,25.5088838 C71.9211845,25.5088838 63.028246,39.3512528 63.028246,56.1134396 C63.028246,75.1252847 74.1763098,86.1530752 93.2929385,86.1530752 C101.398178,86.1530752 107.696128,84.5808656 113.200456,81.5394077 L113.199544,69.2687927 Z" id="Shape"></path>
                <rect id="Rectangle-path" x="125.831891" y="0.416856492" width="15.0820046" height="84.3854214"></rect>
                <path d="M157.933941,67.3626424 C157.933941,78.8350797 164.457403,86.1530752 176.264237,86.1530752 C180.763554,86.1530752 184.260137,85.6952164 187.400911,84.8013667 L186.949431,72.8788155 C185.385421,73.8924829 182.792255,74.4487472 180.100228,74.4487472 C174.349431,74.4487472 173.010023,69.8350797 173.010023,64.8820046 L173.010023,37.8879271 L186.3918,37.8879271 L186.3918,26.8610478 L173.010023,26.8610478 L173.010023,10.4318907 L157.933941,15.2751708 L157.933941,26.8615034 L146.797267,26.8615034 L146.797267,37.8888383 L157.933485,37.8888383 L157.933485,67.3626424 L157.933941,67.3626424 Z" id="Shape"></path>
                <path d="M198.237358,42.8396355 C203.296128,39.0031891 209.704328,36.5348519 216.125285,36.5348519 C225.010023,36.5348519 229.180866,39.684738 229.180866,49.014123 L220.84738,49.014123 C214.547608,49.014123 207.123918,49.5845103 201.386788,52.4018223 C195.651025,55.2100228 191.485194,60.2701595 191.485194,68.9362187 C191.485194,79.9589977 201.496128,86.1539863 211.730296,86.1539863 C218.594989,86.1539863 226.127107,82.5507973 229.622323,76.1407745 L229.84328,76.1407745 C229.964465,77.9362187 229.964465,81.7685649 230.531663,84.8022779 L243.804556,84.8022779 C243.464692,80.3034169 243.244191,76.2505695 243.130296,71.8628702 C243.016401,67.5845103 242.897494,63.1972665 242.897494,57.3412301 L242.897494,49.9220957 C242.897494,32.828246 235.585421,25.5107062 217.927563,25.5107062 C211.50615,25.5107062 203.633713,27.1949886 197.779954,29.9034169 L198.237358,42.8396355 Z M205.881549,68.0437358 C205.881549,59.1480638 215.901595,58.0305239 222.643736,58.0305239 L229.181321,58.0305239 C229.181321,62.5202733 228.49795,66.6920273 226.021412,69.9439636 C223.665148,73.098861 220.063326,75.1252847 215.447836,75.1252847 C210.048292,75.1261959 205.881549,72.9886105 205.881549,68.0437358 Z" id="Shape"></path>
                <path d="M279.826879,27.4246014 L266.779954,27.4246014 L266.779954,11.1088838 L259.690661,13.5831435 L259.690661,27.4255125 L248.435535,27.4255125 L248.435535,33.5020501 L259.690661,33.5020501 L259.690661,67.0236902 C259.690661,77.4974943 260.137585,86.1539863 272.735763,86.1539863 C276.227335,86.1539863 279.716629,85.256492 281.401367,84.5817768 L280.952164,78.7243736 C278.928474,79.5220957 277.127107,80.0779043 274.433713,80.0779043 C268.691572,80.0779043 266.779043,75.8027335 266.779043,70.6259681 L266.779043,33.5029613 L279.825968,33.5029613 L279.826879,27.4246014 Z" id="Shape"></path>
                <path d="M288.753075,84.8018223 L295.832802,84.8018223 L295.832802,56.4451025 C295.832802,46.090205 298.873349,33.5015945 310.12164,33.5015945 C311.919362,33.5015945 313.834169,33.7225513 315.30205,34.1758542 L315.30205,26.7448747 C314.061959,26.405467 312.033257,26.0724374 310.349431,26.0724374 C303.040091,26.0724374 298.190888,32.0300683 295.610934,38.4464692 L295.392711,38.4464692 L295.392711,27.4241458 L288.297039,27.4241458 C288.753075,31.577221 288.753075,33.9448747 288.753075,40.2455581 L288.753075,84.8018223 Z" id="Shape"></path>
                <path d="M358.881093,75.8018223 C355.496583,77.9371298 347.954442,80.0769932 342.782232,80.0769932 C330.410478,80.0769932 323.880182,70.2915718 323.880182,58.1343964 L363.155353,58.1343964 L363.155353,54.5375854 C363.155353,39.1220957 356.511162,26.0733485 340.311162,26.0733485 C325.801367,26.0733485 316.123007,38.5685649 316.123007,56.1138952 C316.123007,73.3248292 323.207745,86.1535308 342.219134,86.1535308 C347.508884,86.1535308 353.922551,85.0277904 358.880182,82.9990888 L358.881093,75.8018223 Z M323.880182,52.0637813 C323.880182,42.6159453 330.296583,32.1494305 340.748975,32.1494305 C351.333941,32.1494305 355.387244,42.0501139 355.387244,52.0637813 L323.880182,52.0637813 Z" id="Shape"></path>
            </g>
            <g id="Group">
                <path d="M93.7895216,64.7202733 C100.158087,80.684738 94.0400911,72.5334852 111.887472,67.2669704 C128.932118,61.4519362 157.911162,57.0528474 144.855125,36.7489749 C132.64738,16.9872437 88.6013667,-7.57949886 78.2738041,2.60455581 C67.1052392,12.2432802 88.2642369,49.3170843 93.7895216,64.7202733" id="Shape" fill="url(#linearGradient-1)"></path>
                <path d="M101.931207,68.4806378 C96.2874715,70.371754 95.309795,63.0419134 83.8924829,38.9722096 C72.8605923,15.1489749 71.9922551,-4.54851936 96.9758542,4.73712984 C121.563098,13.7835991 145.894305,38.2045558 137.894305,49.6806378 C131.707973,58.5617312 106.850114,67.2801822 101.931207,68.4806378" id="Shape" fill="url(#linearGradient-2)"></path>
                <path d="M85.2783599,32.5931663 C79.7444191,13.2173121 92.9143508,7.84191344 114.312073,20.6432802 C135.701139,33.4660592 140.802278,47.3986333 128.487472,56.3781321 C124.026424,59.6378132 103.124829,69.01959 99.4441913,67.1553531 C95.4851936,65.1330296 87.8127563,44.1494305 85.2783599,32.5931663" id="Shape" fill="url(#radialGradient-3)"></path>
                <path d="M105.566287,97.4309795 C89.3671982,75.0728929 103.09795,85.2592255 77.3216401,102.944875 C53.1448747,121.108428 7.90979499,144.253303 39.2952164,169.870159 C69.090205,195.107062 152.155809,211.431891 163.381321,189.825968 C176.205467,168.612301 122.4041,119.166287 105.566287,97.4309795" id="Shape" fill="url(#linearGradient-4)"></path>
                <path d="M94.0036446,95.4182232 C100.864692,91.4842825 107.9918,103.128929 135.565376,134.744875 C164.512528,167.953075 176.930296,199.675626 132.287472,196.190888 C80.7794989,192.170843 28.5899772,162.573576 45.6300683,138.361731 C53.1626424,127.656948 88.8523918,97.1207289 94.0036446,95.4182232" id="Shape" fill="url(#linearGradient-5)"></path>
                <path d="M137.848747,144.949886 C158.023235,172.7918 138.749886,188.78451 97.9056948,179.438269 C57.1020501,170.136674 37.9781321,149.946697 56.7503417,131.184966 C68.5826879,119.355809 91.3138952,97.6109339 96.5562642,97.1968109 C102.90615,96.7198178 128.439636,129.763098 137.848747,144.949886" id="Shape" fill="url(#radialGradient-6)"></path>
                <path d="M77.1799544,83.338041 C95.3535308,72.6268793 86.614123,81.566287 76.8792711,60.870615 C66.6164009,41.284738 55.8551253,6.94441913 33.6656036,26.5826879 C11.9389522,45.138041 -9.60045558,103.174943 4.6738041,113.819134 C18.4710706,125.574032 59.5084282,92.929385 77.1799544,83.338041" id="Shape" fill="url(#linearGradient-7)"></path>
                <path d="M80.1567198,72.7189066 C84.4601367,79.1917995 79.6077449,79.585877 49.6164009,98.9603645 C22.546697,116.449203 -2.82687927,122.776765 3.76492027,90.7070615 C10.1334852,59.1407745 34.6364465,24.4382688 50.8264237,32.0168565 C63.2965831,37.8605923 76.4806378,65.9330296 80.1567198,72.7189066" id="Shape" fill="url(#linearGradient-8)"></path>
                <path d="M39.9289294,100.166287 C16.6701595,108.774943 8.30113895,95.067426 19.8255125,66.6829157 C31.3703872,38.3161731 47.5102506,27.0888383 60.552164,42.7794989 C69.6993166,53.7813212 79.7444191,72.2915718 79.7444191,75.7626424 C79.7444191,79.0569476 62.9111617,91.1968109 39.9289294,100.166287" id="Shape" fill="url(#radialGradient-9)"></path>
            </g>
        </g>
    </g>
</svg>